<?xml version="1.0" encoding="UTF-8"?>
<!DOCTYPE svg PUBLIC "-//W3C//DTD SVG 1.1//EN" "http://www.w3.org/Graphics/SVG/1.1/DTD/svg11.dtd">
<!-- Creator: CorelDRAW -->
<svg xmlns="http://www.w3.org/2000/svg" xml:space="preserve" width="119.311mm" height="119.311mm" version="1.1" style="shape-rendering:geometricPrecision; text-rendering:geometricPrecision; image-rendering:optimizeQuality; fill-rule:evenodd; clip-rule:evenodd"
viewBox="0 0 2392.69 2392.69"
 xmlns:xlink="http://www.w3.org/1999/xlink"
 xmlns:xodm="http://www.corel.com/coreldraw/odm/2003">
 <defs>
  <style type="text/css">
   <![CDATA[
    .fil0 {fill:none}
    .fil2 {fill:#373435}
    .fil1 {fill:url(#id0)}
   ]]>
  </style>
  <linearGradient id="id0" gradientUnits="userSpaceOnUse" x1="826.04" y1="1793.76" x2="1950.43" y2="1531.12">
   <stop offset="0" style="stop-opacity:1; stop-color:#3AB349"/>
   <stop offset="0.211765" style="stop-opacity:1; stop-color:#4BB644"/>
   <stop offset="0.490196" style="stop-opacity:1; stop-color:#52BA47"/>
   <stop offset="0.701961" style="stop-opacity:1; stop-color:#5ABB47"/>
   <stop offset="1" style="stop-opacity:1; stop-color:#8DC53E"/>
  </linearGradient>
 </defs>
 <g id="Camada_x0020_1">
  <metadata id="CorelCorpID_0Corel-Layer"/>
  <rect class="fil0" width="2392.69" height="2392.69"/>
  <g id="_2232309592160">
   <path class="fil1" d="M615.06 1062.97c9.93,-76.49 36.89,-169.43 77.57,-235.44 65.91,-106.91 158.71,-190.53 276.14,-238.31 66.46,-27.04 149.45,-41.39 221.22,-42.09 69.43,-0.69 176.32,17.64 256.52,51.23 105.74,44.29 203.8,141.08 260.51,239.29 24.65,42.69 48.67,117.78 63.64,196.33 42.43,222.68 -42.82,437.99 -164.01,624.3 -82.08,126.2 -354.36,433.09 -465.23,506.4 -124.59,-170.12 -254.06,-301.4 -360.69,-489.68 -114.4,-202.01 -175.73,-380.68 -165.67,-612.05zm160.31 -488.57c-167.73,127.45 -277.79,338.14 -280.25,548.1 -2.55,217.66 93.68,462.38 207.2,645.62 85.81,138.54 289.37,448.15 401.47,522.63 28.98,19.25 41.11,18.62 68.05,-1.45 58.44,-43.54 115.56,-88.8 168.55,-139.99 98.62,-95.27 209.57,-212.57 288.27,-323.4 144.37,-203.31 280.27,-477.33 268.23,-734.79 -6.74,-144.17 -91.34,-337.3 -197.5,-444.54 -104.94,-106 -241.67,-182.87 -389.59,-207.46 -188.78,-31.39 -382.34,19.71 -534.44,135.27zm-156.75 166.63c54.31,-147.18 159.64,-233.84 239.59,-267.7 102.68,-43.49 212.07,-53.95 303.65,-113.9 57.99,-37.96 97.57,-86.68 119.9,-145.46 4.2,59.68 13.45,109.28 -11.35,185.34 192.38,-38.39 259.66,-162.9 301.97,-311.43 24.05,13.04 50.72,28.41 66.89,45.28 125.7,131.15 67.13,308.45 -31.7,434.18 -87.98,-64.56 -189.9,-110.3 -297.76,-128.23 -188.78,-31.39 -382.34,19.71 -534.44,135.27 -60.55,46.01 -113.58,102.88 -156.75,166.63zm989.09 -173.57c97,-40.44 141.72,-111.4 182.17,-168.14 7.26,71.9 31.12,218.9 -22.16,332.05 -21.23,-31.64 -44.22,-60.43 -68.33,-84.79 -28.37,-28.66 -59.08,-55.18 -91.69,-79.13z"/>
   <path class="fil2" d="M760.26 1375.46c-40.81,-0.65 -82.47,0.81 -117.79,-6.88 -98.02,-21.34 -149.95,-177.27 -150.2,-266.84 -0.11,-41.99 8.23,-83.1 46.03,-109.93 69.81,-37.66 371.41,-37.55 476.22,6.93 36.72,15.57 49.53,20.15 50.21,64.51 0.49,32.24 -12.83,70.62 -26.38,104.21 -22.95,56.91 -61.79,131.01 -114.83,162.71 -50.93,30.46 -104.29,43.96 -163.25,45.3zm394.12 -310.72c-31.61,44.39 -45.72,105.15 -68.18,156.05 -32.98,74.65 -57.61,111.31 -123.61,159.35 -33.89,24.66 -72.62,40.2 -113.23,49.69 -82.19,19.19 -208.38,25.02 -282.3,-21.3 -21.68,-13.59 -41.56,-31.54 -60.32,-54.44 -24.92,-30.4 -30.94,-45.87 -47.62,-81.36 -19.31,-41.13 -35.17,-171.03 -35.69,-171.81 -2.32,-19.19 -4.57,-31.05 -19.26,-45.27 -1.75,-1.7 -39.19,-20.72 -40.57,-20.94 -0.03,-2.24 -0.03,-8.51 -0.05,-16.51 -0.06,-21.58 -0.28,-55.76 -1.75,-57.37 -3.42,-3.87 -3.74,-11.99 -3.44,-20.02 0.38,-10.11 4.61,-23.18 15.82,-23.38 2.92,-0.05 5.86,-0.11 8.79,-0.16 90.39,-1.69 180.55,-14.23 276.07,-14.62 33.47,-0.14 72.5,-0.06 108.9,0.11 110.79,0.55 164.29,7.62 274.97,35.29 52.43,13.11 104.72,25.17 153.45,26.21 48.73,-1.04 101.03,-13.1 153.45,-26.21 110.68,-27.67 164.18,-34.75 274.97,-35.29 36.4,-0.18 75.43,-0.25 108.9,-0.11 95.51,0.39 185.68,12.92 276.07,14.62 2.93,0.05 5.86,0.11 8.79,0.16 11.21,0.2 15.44,13.27 15.82,23.38 0.3,8.03 -0.03,16.15 -3.44,20.02 -1.48,1.61 -1.7,35.79 -1.75,57.37 -0.02,8.01 -0.02,14.28 -0.05,16.51 -1.38,0.22 -38.81,19.24 -40.57,20.94 -14.68,14.22 -16.94,26.07 -19.26,45.27 -0.52,0.78 -16.38,130.68 -35.69,171.81 -16.69,35.49 -22.71,50.96 -47.62,81.36 -18.76,22.91 -38.64,40.85 -60.32,54.44 -73.92,46.32 -200.11,40.49 -282.3,21.3 -40.61,-9.48 -79.34,-25.03 -113.23,-49.69 -66,-48.04 -90.63,-84.69 -123.61,-159.35 -22.47,-50.9 -36.58,-111.66 -68.19,-156.05 -23.33,-32.74 -60.6,-32.74 -83.92,0zm478.05 310.72c40.81,-0.65 82.47,0.81 117.79,-6.88 98.02,-21.34 149.95,-177.27 150.2,-266.84 0.11,-41.99 -8.23,-83.1 -46.03,-109.93 -69.81,-37.66 -371.41,-37.55 -476.22,6.93 -36.72,15.57 -49.53,20.15 -50.21,64.51 -0.49,32.24 12.83,70.62 26.38,104.21 22.95,56.91 61.79,131.01 114.83,162.71 50.93,30.46 104.29,43.96 163.25,45.3z"/>
   <path class="fil2" d="M953.71 1027.25c27.43,18.17 46.46,57.82 46.46,103.82 0,63.18 -35.89,114.4 -80.17,114.4 -44.28,0 -80.17,-51.22 -80.17,-114.4 0,-15.85 2.26,-30.94 6.34,-44.67 17.51,29.86 41.63,47.27 64.23,42.71 30.27,-6.11 47.76,-49.61 43.31,-101.85z"/>
   <path class="fil2" d="M1508.81 1027.25c27.43,18.17 46.46,57.82 46.46,103.82 0,63.18 -35.89,114.4 -80.17,114.4 -44.28,0 -80.17,-51.22 -80.17,-114.4 0,-15.85 2.26,-30.94 6.34,-44.67 17.51,29.86 41.63,47.27 64.23,42.71 30.27,-6.11 47.77,-49.61 43.32,-101.85z"/>
   <path class="fil2" d="M1351.63 1482.07c-30.03,39.94 -68.76,74 -118.43,85.4 -53.22,12.22 -106.38,-5.11 -152.17,-32.3 -8.64,-5.13 -11.53,-16.41 -6.44,-25.12 5.09,-8.71 16.28,-11.63 24.92,-6.5 91.15,54.12 162.36,36.13 221.79,-41.9 -13.79,-11.72 -58.43,-64.55 -26.24,-77.49 9.31,-3.74 19.93,0.86 23.65,10.25 15.31,38.71 49.54,63.84 90.71,67.95 9.98,1 17.31,10.01 16.32,20.06 -0.99,10.06 -9.93,17.45 -19.91,16.45 -18.58,-1.86 -37.3,-7.98 -54.2,-16.82z"/>
  </g>
 </g>
</svg>
